<?xml version="1.0" standalone="yes"?>
<svg xmlns="http://www.w3.org/2000/svg" width="962" height="134">
<path style="fill:#feffff; stroke:none;" d="M0 0L0 134L962 134L962 0L0 0z"/>
<path style="fill:#62afde; stroke:none;" d="M26 14L26 15L113 15L86 14L26 14z"/>
<path style="fill:#9bc3e3; stroke:none;" d="M113 14L113 15L118 15L113 14M157 14L158 15L157 14z"/>
<path style="fill:#62afde; stroke:none;" d="M157 97L158 97L158 15L192 15L167 14L158.028 15.6034L157 37L157 97z"/>
<path style="fill:#9bc3e3; stroke:none;" d="M192 14L193 15L192 14M345 14L346 15L345 14z"/>
<path style="fill:#62afde; stroke:none;" d="M346 14L346 15L359 16L346 14z"/>
<path style="fill:#9bc3e3; stroke:none;" d="M431.667 14.3333L432.333 14.6667L431.667 14.3333z"/>
<path style="fill:#62afde; stroke:none;" d="M433 14L433 15L466 15L433 14z"/>
<path style="fill:#9bc3e3; stroke:none;" d="M466 14L467 15L466 14M512 14L513 15L512 14z"/>
<path style="fill:#62afde; stroke:none;" d="M512 18L513 18L513 15L546 15C539.946 12.4597 514.255 11.2047 512 18z"/>
<path style="fill:#9bc3e3; stroke:none;" d="M546.667 14.3333L547.333 14.6667L546.667 14.3333M610 14L610 15L677 15L677 50L678 24L676.397 15.0278L658 14L610 14M698 49L699 49L699 15L791 15C784.806 12.4009 775.686 14 769 14L721 14C716.33 14 702.163 11.645 699.028 15.6034C694.423 21.4178 698 41.618 698 49M830 14L830 15L865 15L830 14M910 66L911 66L911 15L922 15C919.048 13.7611 912.389 12.6896 910.603 16.3179C908.732 20.1219 910 26.8453 910 31L910 66M933 67L934 67L934 15L945 15L945 68C946.875 63.5314 946 57.8086 946 53C946 42.3099 948.722 27.3859 945.682 17.1481C944.564 13.3828 937.402 12.8109 934.603 15.0278C931.649 17.3675 933 24.6845 933 28L933 67z"/>
<path style="fill:#2062ae; stroke:none;" d="M26 15L26 50L96 50C101.478 50 116.112 52.6416 117.458 44.9599C119.015 36.0686 105.046 38 100 38L37 38L37 26L90 26C98.2282 26 107.975 24.5827 116 26.5332C126.76 29.1485 133.593 42.0555 127.91 51.9992C121.59 63.06 109.926 62 99 62L26 62L26 120L61 120L61 85L50 85L50 109C46.6768 109 41.1882 109.981 38.6034 107.397C34.9816 103.775 34.9977 76.9106 39.3179 74.0278C44.2556 70.7329 56.2143 73 62 73L103 73C111.771 73 120.185 73.8133 127.996 69.0702C148.098 56.8631 145.314 25.8178 124 16.6836C115.085 12.8632 102.544 15 93 15L26 15z"/>
<path style="fill:#9bc3e3; stroke:none;" d="M121 15L122 16L121 15z"/>
<path style="fill:#2062ae; stroke:none;" d="M158 15L158 97L263 97L263 109L158 109L158 120L274 120L274 86L169 85L169 26L181 26L181 73L193 73L193 15L158 15M285 120L314 120L325.471 118.972L337.421 100L367 50C375.473 70.2448 388.896 90.7079 401 109C397.074 109 391.657 109.934 388.104 107.972C377.516 102.125 374.193 82.7495 366 74C364.145 77.145 360.884 81.2289 360.812 85C360.656 93.085 371.185 105.127 375.15 112C376.696 114.681 378.145 118.116 381.185 119.397C391.057 123.555 409.278 120 420 120L386.424 61L366 27C354.331 46.0622 343.327 65.5712 332.281 85C324.532 98.6293 321.811 109 305 109L342.281 44L358 15C354.528 15 349.596 14.1208 346.379 15.6034C339.717 18.6737 334.615 33.827 330.989 40C315.612 66.1815 297.849 92.5118 285 120z"/>
<path style="fill:#62afde; stroke:none;" d="M431 15L431 120L432 120L432 47L431 15z"/>
<path style="fill:#2062ae; stroke:none;" d="M432 15L432 120L467 120C467 103.154 470.521 86.7102 456 75L455.514 98L454.393 107.397L443 109L443 26L460.999 27.0278L479.729 47L524 97L524 26L536 26L536 109C530.671 109 522.865 110.432 518.004 107.972C511.072 104.465 505.402 94.8246 500.421 89C486.831 73.1099 472.955 51.1952 456 39C452.968 63.3065 479.492 82.9711 494.282 100C499.28 105.755 505.683 116.685 513.001 119.397C522.245 122.821 537.156 120 547 120L547 15L513 15L513 66L480.579 30L466.715 15.6034L432 15z"/>
<path style="fill:#62afde; stroke:none;" d="M547 15L547 120L548 120L548 47L547 15z"/>
<path style="fill:#9bc3e3; stroke:none;" d="M603 15L604 16L603 15z"/>
<path style="fill:#62afde; stroke:none;" d="M604.667 15.3333L605.333 15.6667L604.667 15.3333z"/>
<path style="fill:#099cdf; stroke:none;" d="M572 38C568.44 38.5934 567.484 41.4967 570 42L570 43L566 45L566 46L570 46L570 47L565 47L565 48L568 48L568 49L566 49L566 50L570 50L570 51L566 53L566 54L570 54L570 55L566 55L566 56C567.96 56.6534 568.554 57 566 57L566 58L570 58L570 59L566 61L566 62L570 62L570 63L566 63L566 64C567.96 64.6534 568.554 65 566 65L566 66L570 66L570 67L566 69L566 70L570 70L570 71L566 71L566 72C567.96 72.6534 568.554 73 566 73L566 74L570 74L570 75L566 77L566 78L570 78L570 79L566 79L566 80C567.96 80.6534 568.554 81 566 81L566 82L570 82L570 83L565 88L570 92L570 93L568 94L569 96L572 97C573.649 106.752 587.457 114.277 596 117.301C619.487 125.613 652.267 120 677 120L677 86L666 86L666 109C645.276 109 616.158 113.566 598 106C593.419 104.091 586.192 99.2563 583 95C579.545 90.3939 576.705 83.541 574 83L573 80L572 76L572 59L574 52L577 46C585.164 41.6015 589.801 32.8316 599 29.0934C618.222 21.2818 645.547 26 666 26L666 38L625 38C616.572 38 607.627 37.1991 600 41.5332C580.988 52.3363 579.534 81.3334 599 92.6366C613.684 101.163 636.622 97 653 97L653 86C639.707 86 619.041 89.8757 607 83.5579C593.276 76.3569 592.829 58.5451 607 51.4568C613.133 48.3894 622.319 50 629 50L677 50L677 15C651.784 15 620.062 9.8748 596 18.0039C587.591 20.8447 573.614 28.496 572 38M699 15L699 49L769 49C773.881 49 789.212 51.601 790.458 44.8958C792.062 36.2551 777.831 38 773 38L710 38L710 26L763 26C771.229 26 780.955 24.5839 789 26.3935C799.279 28.7055 806.444 41.2025 801.543 51C795.644 62.7943 784.217 62 773 62L699 62L699 120L734 120L734 86L723 86L723 109L710 109L710 73L768 73C777.722 73 788.93 74.6345 798 70.4815C819.192 60.7778 819.804 29.8578 800 18.3634C790.714 12.9736 778.328 15 768 15L699 15z"/>
<path style="fill:#62afde; stroke:none;" d="M793 15L794 16L793 15z"/>
<path style="fill:#9bc3e3; stroke:none;" d="M794 15L795 16L794 15z"/>
<path style="fill:#62afde; stroke:none;" d="M830 15L830 67L831 67L831 32L830 15z"/>
<path style="fill:#099cdf; stroke:none;" d="M831 15C831 36.9524 826.112 65.5904 835.312 86C853.729 126.86 911.689 132.251 936.452 94C950.648 72.0716 945 39.8883 945 15L934 15C934 36.4324 939.201 65.7283 928.12 85C909.722 116.998 864.845 115.716 847.043 84C837.883 67.6801 842 44.0711 842 26L854 26C854 42.4852 849.972 65.0722 858.185 80C870.612 102.587 905.098 102.299 917.637 80C927.313 62.7936 922 34.1298 922 15L911 15C911 31.7322 916.229 59.2006 907.637 74C897.9 90.77 873.698 89.1849 866.479 71C860.438 55.7822 865 31.3006 865 15L831 15z"/>
<path style="fill:#62afde; stroke:none;" d="M123 16L124 17L123 16z"/>
<path style="fill:#9bc3e3; stroke:none;" d="M124 16L125 17L124 16M344 16L345 17L344 16M358 16L359 17L358 16z"/>
<path style="fill:#099cdf; stroke:none;" d="M468 16L469 17L468 16z"/>
<path style="fill:#9bc3e3; stroke:none;" d="M599 16L600 17L599 16z"/>
<path style="fill:#62afde; stroke:none;" d="M600 16L601 17L600 16M796 16L797 17L796 16z"/>
<path style="fill:#9bc3e3; stroke:none;" d="M126 17L127 18L126 17z"/>
<path style="fill:#62afde; stroke:none;" d="M357 17L358 18L357 17M469 17L470 18L469 17z"/>
<path style="fill:#9bc3e3; stroke:none;" d="M596 17L597 18L596 17z"/>
<path style="fill:#62afde; stroke:none;" d="M597 17L598 18L597 17M798 17L799 18L798 17z"/>
<path style="fill:#9bc3e3; stroke:none;" d="M799 17L800 18L799 17z"/>
<path style="fill:#62afde; stroke:none;" d="M127 18L128 19L127 18M343 18L344 19L343 18M470 18L471 19L470 18z"/>
<path style="fill:#099cdf; stroke:none;" d="M512 18L513 19L512 18z"/>
<path style="fill:#9bc3e3; stroke:none;" d="M593 18L594 19L593 18z"/>
<path style="fill:#62afde; stroke:none;" d="M594 18L595 19L594 18M800 18L801 19L800 18z"/>
<path style="fill:#9bc3e3; stroke:none;" d="M129 19L130 20L129 19M342 19L343 20L342 19M356 19L357 20L356 19z"/>
<path style="fill:#62afde; stroke:none;" d="M471 19L472 20L471 19M512 19L513 20L512 19z"/>
<path style="fill:#9bc3e3; stroke:none;" d="M591 19L592 20L591 19M802 19L803 20L802 19z"/>
<path style="fill:#62afde; stroke:none;" d="M130 20L131 21L130 20z"/>
<path style="fill:#9bc3e3; stroke:none;" d="M472 20L473 21L472 20z"/>
<path style="fill:#099cdf; stroke:none;" d="M512 20L513 21L512 20z"/>
<path style="fill:#9bc3e3; stroke:none;" d="M589 20L590 21L589 20M803 20L804 21L803 20M341 21L342 22L341 21M355 21L356 22L355 21M473 21L474 22L473 21z"/>
<path style="fill:#62afde; stroke:none;" d="M512 21L513 22L512 21z"/>
<path style="fill:#9bc3e3; stroke:none;" d="M587 21L588 22L587 21z"/>
<path style="fill:#62afde; stroke:none;" d="M804 21L805 22L804 21M354 22L355 23L354 22z"/>
<path style="fill:#099cdf; stroke:none;" d="M512.333 22.6667L512.667 23.3333L512.333 22.6667z"/>
<path style="fill:#62afde; stroke:none;" d="M586 22L587 23L586 22M805 22L806 23L805 22M340 23L341 24L340 23z"/>
<path style="fill:#9bc3e3; stroke:none;" d="M584 23L585 24L584 23z"/>
<path style="fill:#62afde; stroke:none;" d="M806 23L807 24L806 23M353 24L354 25L353 24M475 24L476 25L475 24M512 24L513 25L512 24M583 24L584 25L583 24M807 24L808 25L807 24M135 25L136 26L135 25M339 25L340 26L339 25M476 25L477 26L476 25z"/>
<path style="fill:#099cdf; stroke:none;" d="M512 25L513 26L512 25z"/>
<path style="fill:#9bc3e3; stroke:none;" d="M581 25L582 26L581 25z"/>
<path style="fill:#62afde; stroke:none;" d="M808 25L809 26L808 25M37 26L37 38L38 38L37 26z"/>
<path style="fill:#9bc3e3; stroke:none;" d="M115.667 26.3333L116.333 26.6667L115.667 26.3333M136 26L137 27L136 26M338 26L339 27L338 26M352 26L353 27L352 26z"/>
<path style="fill:#62afde; stroke:none;" d="M366 26L367 27L366 26z"/>
<path style="fill:#9bc3e3; stroke:none;" d="M443 26L443 109L455 109L455 108L444 108L444 51L443 26z"/>
<path style="fill:#62afde; stroke:none;" d="M477 26L478 27L477 26M512 26L512 35L513 35L512 26z"/>
<path style="fill:#9bc3e3; stroke:none;" d="M580 26L581 27L580 26z"/>
<path style="fill:#62afde; stroke:none;" d="M608.667 26.3333L609.333 26.6667L608.667 26.3333z"/>
<path style="fill:#9bc3e3; stroke:none;" d="M610.667 26.3333L611.333 26.6667L610.667 26.3333M665 26L665 38L666 38L665 26z"/>
<path style="fill:#62afde; stroke:none;" d="M710 26L710 38L711 38L710 26z"/>
<path style="fill:#9bc3e3; stroke:none;" d="M789 26L790 27L789 26z"/>
<path style="fill:#62afde; stroke:none;" d="M790 26L791 27L790 26z"/>
<path style="fill:#9bc3e3; stroke:none;" d="M809 26L810 27L809 26M853 26L853 66L854 66C854 54.566 857.411 36.5118 853 26z"/>
<path style="fill:#62afde; stroke:none;" d="M119 27L120 28L119 27z"/>
<path style="fill:#9bc3e3; stroke:none;" d="M365 27L366 28L365 27M367 27L368 28L367 27M478 27L479 28L478 27z"/>
<path style="fill:#62afde; stroke:none;" d="M579 27L580 28L579 27M603 27L604 28L603 27z"/>
<path style="fill:#9bc3e3; stroke:none;" d="M604.667 27.3333L605.333 27.6667L604.667 27.3333z"/>
<path style="fill:#62afde; stroke:none;" d="M792 27L793 28L792 27M121 28L122 29L121 28M137 28L138 29L137 28z"/>
<path style="fill:#9bc3e3; stroke:none;" d="M337 28L338 29L337 28M351 28L352 29L351 28z"/>
<path style="fill:#62afde; stroke:none;" d="M367 28L368 29L367 28z"/>
<path style="fill:#9bc3e3; stroke:none;" d="M463 28L464 29L463 28M479 28L480 29L479 28z"/>
<path style="fill:#62afde; stroke:none;" d="M578 28L579 29L578 28z"/>
<path style="fill:#9bc3e3; stroke:none;" d="M600 28L601 29L600 28z"/>
<path style="fill:#62afde; stroke:none;" d="M794 28L795 29L794 28M810 28L811 29L810 28z"/>
<path style="fill:#9bc3e3; stroke:none;" d="M138 29L139 30L138 29z"/>
<path style="fill:#62afde; stroke:none;" d="M350 29L351 30L350 29M364 29L365 30L364 29z"/>
<path style="fill:#9bc3e3; stroke:none;" d="M368 29L369 30L368 29M464 29L465 30L464 29M480 29L481 30L480 29z"/>
<path style="fill:#62afde; stroke:none;" d="M577 29L578 30L577 29M597 29L598 30L597 29z"/>
<path style="fill:#9bc3e3; stroke:none;" d="M598 29L599 30L598 29z"/>
<path style="fill:#62afde; stroke:none;" d="M336 30L337 31L336 30z"/>
<path style="fill:#9bc3e3; stroke:none;" d="M363 30L364 31L363 30z"/>
<path style="fill:#62afde; stroke:none;" d="M465 30L466 31L465 30M576 30L577 31L576 30M595 30L596 31L595 30M797 30L798 31L797 30M811 30L812 31L811 30z"/>
<path style="fill:#9bc3e3; stroke:none;" d="M139 31L140 32L139 31M335 31L336 32L335 31z"/>
<path style="fill:#62afde; stroke:none;" d="M349 31L350 32L349 31M363 31L364 32L363 31z"/>
<path style="fill:#9bc3e3; stroke:none;" d="M369 31L370 32L369 31z"/>
<path style="fill:#62afde; stroke:none;" d="M466 31L467 32L466 31z"/>
<path style="fill:#099cdf; stroke:none;" d="M481 31L482 32L481 31z"/>
<path style="fill:#62afde; stroke:none;" d="M575 31L574 33L575 31z"/>
<path style="fill:#9bc3e3; stroke:none;" d="M594 31L595 32L594 31z"/>
<path style="fill:#62afde; stroke:none;" d="M798 31L799 32L798 31M335 32L336 33L335 32z"/>
<path style="fill:#9bc3e3; stroke:none;" d="M362 32L363 33L362 32z"/>
<path style="fill:#62afde; stroke:none;" d="M467 32L468 33L467 32M482 32L483 33L482 32z"/>
<path style="fill:#2062ae; stroke:none;" d="M575 32L576 33L575 32z"/>
<path style="fill:#9bc3e3; stroke:none;" d="M592 32L593 33L592 32z"/>
<path style="fill:#62afde; stroke:none;" d="M812 32L813 33L812 32z"/>
<path style="fill:#9bc3e3; stroke:none;" d="M334 33L335 34L334 33M348 33L349 34L348 33z"/>
<path style="fill:#62afde; stroke:none;" d="M370 33L371 34L370 33M483 33L484 34L483 33M573 33L574 34L573 33M590 33L591 34L590 33z"/>
<path style="fill:#9bc3e3; stroke:none;" d="M127 34L128 35L127 34M140 34L141 35L140 34M361 34L362 35L361 34M371 34L372 35L371 34z"/>
<path style="fill:#62afde; stroke:none;" d="M484 34L485 35L484 34z"/>
<path style="fill:#9bc3e3; stroke:none;" d="M572 34L573 35L572 34M589 34L590 35L589 34M800 34L801 35L800 34M813 34L814 35L813 34M333 35L334 36L333 35M347 35L348 36L347 35M469 35L470 36L469 35M485 35L486 36L485 35z"/>
<path style="fill:#099cdf; stroke:none;" d="M512 35L513 36L512 35z"/>
<path style="fill:#9bc3e3; stroke:none;" d="M588 35L589 36L588 35z"/>
<path style="fill:#62afde; stroke:none;" d="M813 35L814 36L813 35z"/>
<path style="fill:#9bc3e3; stroke:none;" d="M128 36L129 37L128 36z"/>
<path style="fill:#62afde; stroke:none;" d="M346 36L347 37L346 36M360 36L361 37L360 36z"/>
<path style="fill:#9bc3e3; stroke:none;" d="M372 36L373 37L372 36M470 36L471 37L470 36M486 36L487 37L486 36z"/>
<path style="fill:#62afde; stroke:none;" d="M512 36L512 44L513 44L512 36z"/>
<path style="fill:#9bc3e3; stroke:none;" d="M801 36L802 37L801 36M141.333 37.6667L141.667 38.3333L141.333 37.6667z"/>
<path style="fill:#62afde; stroke:none;" d="M332 37L333 38L332 37z"/>
<path style="fill:#9bc3e3; stroke:none;" d="M359 37L360 38L359 37z"/>
<path style="fill:#62afde; stroke:none;" d="M455 37L457 39L455 37z"/>
<path style="fill:#9bc3e3; stroke:none;" d="M471 37L472 38L471 37M487 37L488 38L487 37z"/>
<path style="fill:#62afde; stroke:none;" d="M570 37L571 38L570 37z"/>
<path style="fill:#2062ae; stroke:none;" d="M571 37L572 38L571 37z"/>
<path style="fill:#62afde; stroke:none;" d="M114 38L115 39L114 38M129 38L130 39L129 38z"/>
<path style="fill:#9bc3e3; stroke:none;" d="M331 38L332 39L331 38M345 38L346 39L345 38z"/>
<path style="fill:#62afde; stroke:none;" d="M373 38L374 39L373 38z"/>
<path style="fill:#099cdf; stroke:none;" d="M455 38L455 42L456 42L455 38z"/>
<path style="fill:#62afde; stroke:none;" d="M472 38L473 39L472 38z"/>
<path style="fill:#9bc3e3; stroke:none;" d="M569 38L570 39L569 38z"/>
<path style="fill:#62afde; stroke:none;" d="M584 38L585 39L584 38z"/>
<path style="fill:#9bc3e3; stroke:none;" d="M607 38L608 39L607 38z"/>
<path style="fill:#62afde; stroke:none;" d="M608 38L609 39L608 38M786 38L787 39L786 38z"/>
<path style="fill:#9bc3e3; stroke:none;" d="M787 38L788 39L787 38z"/>
<path style="fill:#62afde; stroke:none;" d="M802 38L803 39L802 38z"/>
<path style="fill:#9bc3e3; stroke:none;" d="M814.333 38.6667L814.667 39.3333L814.333 38.6667M116 39L117 40L116 39M129 39L130 40L129 39z"/>
<path style="fill:#62afde; stroke:none;" d="M141 39L142 40L141 39M331 39L332 40L331 39z"/>
<path style="fill:#9bc3e3; stroke:none;" d="M358 39L359 40L358 39z"/>
<path style="fill:#62afde; stroke:none;" d="M457 39L458 40L457 39M473 39L474 40L473 39z"/>
<path style="fill:#099cdf; stroke:none;" d="M488 39L489 40L488 39z"/>
<path style="fill:#2062ae; stroke:none;" d="M570 39L571 40L570 39z"/>
<path style="fill:#62afde; stroke:none;" d="M583 39L584 40L583 39z"/>
<path style="fill:#9bc3e3; stroke:none;" d="M603 39L604 40L603 39z"/>
<path style="fill:#62afde; stroke:none;" d="M604 39L605 40L604 39z"/>
<path style="fill:#9bc3e3; stroke:none;" d="M802 39L803 40L802 39M330 40L331 41L330 40M344 40L345 41L344 40z"/>
<path style="fill:#62afde; stroke:none;" d="M374 40L375 41L374 40M458 40L459 41L458 40z"/>
<path style="fill:#099cdf; stroke:none;" d="M474 40L475 41L474 40z"/>
<path style="fill:#62afde; stroke:none;" d="M489 40L490 41L489 40z"/>
<path style="fill:#9bc3e3; stroke:none;" d="M568 40L569 41L568 40z"/>
<path style="fill:#2062ae; stroke:none;" d="M569 40L570 41L569 40z"/>
<path style="fill:#9bc3e3; stroke:none;" d="M601 40L602 41L601 40z"/>
<path style="fill:#62afde; stroke:none;" d="M814.333 40.6667L814.667 41.3333L814.333 40.6667M117 41L118 42L117 41M343 41L344 42L343 41M357 41L358 42L357 41z"/>
<path style="fill:#9bc3e3; stroke:none;" d="M375 41L376 42L375 41M459 41L460 42L459 41z"/>
<path style="fill:#62afde; stroke:none;" d="M490 41L491 42L490 41z"/>
<path style="fill:#9bc3e3; stroke:none;" d="M599 41L600 42L599 41M790 41L791 42L790 41M329 42L330 43L329 42M343 42L344 43L343 42z"/>
<path style="fill:#62afde; stroke:none;" d="M375 42L376 43L375 42z"/>
<path style="fill:#9bc3e3; stroke:none;" d="M460 42L461 43L460 42M475 42L476 43L475 42M491 42L492 43L491 42z"/>
<path style="fill:#62afde; stroke:none;" d="M567 42L568 43L567 42z"/>
<path style="fill:#2062ae; stroke:none;" d="M568.667 42.3333L569.333 42.6667L568.667 42.3333z"/>
<path style="fill:#9bc3e3; stroke:none;" d="M581 42L582 43L581 42z"/>
<path style="fill:#62afde; stroke:none;" d="M598 42L599 43L598 42M342 43L343 44L342 43M356 43L357 44L356 43z"/>
<path style="fill:#9bc3e3; stroke:none;" d="M376 43L377 44L376 43z"/>
<path style="fill:#099cdf; stroke:none;" d="M455 43L455 46L456 46L455 43z"/>
<path style="fill:#9bc3e3; stroke:none;" d="M476 43L477 44L476 43M492 43L493 44L492 43M566 43L567 44L566 43z"/>
<path style="fill:#62afde; stroke:none;" d="M580 43L581 44L580 43z"/>
<path style="fill:#9bc3e3; stroke:none;" d="M596 43L597 44L596 43z"/>
<path style="fill:#62afde; stroke:none;" d="M328 44L329 45L328 44z"/>
<path style="fill:#9bc3e3; stroke:none;" d="M355 44L356 45L355 44M477 44L478 45L477 44M493 44L494 45L493 44z"/>
<path style="fill:#099cdf; stroke:none;" d="M512 44L513 45L512 44z"/>
<path style="fill:#62afde; stroke:none;" d="M566 44L567 45L566 44z"/>
<path style="fill:#2062ae; stroke:none;" d="M567 44L568 45L567 44M569 44L570 45L569 44z"/>
<path style="fill:#62afde; stroke:none;" d="M595 44L596 45L595 44z"/>
<path style="fill:#9bc3e3; stroke:none;" d="M327 45L328 46L327 45M341 45L342 46L341 45M377 45L378 46L377 45z"/>
<path style="fill:#099cdf; stroke:none;" d="M462 45L463 46L462 45z"/>
<path style="fill:#62afde; stroke:none;" d="M478 45L479 46L478 45M512 45L512 65L513 65L512 45z"/>
<path style="fill:#9bc3e3; stroke:none;" d="M579 45L580 46L579 45z"/>
<path style="fill:#62afde; stroke:none;" d="M594 45L595 46L594 45M117 46L118 47L117 46z"/>
<path style="fill:#9bc3e3; stroke:none;" d="M354 46L355 47L354 46z"/>
<path style="fill:#62afde; stroke:none;" d="M463 46L464 47L463 46M479 46L480 47L479 46z"/>
<path style="fill:#099cdf; stroke:none;" d="M494 46L495 47L494 46z"/>
<path style="fill:#62afde; stroke:none;" d="M565 46L566 47L565 46z"/>
<path style="fill:#2062ae; stroke:none;" d="M566 46L566 47L570 47L566 46M577 46L578 47L577 46z"/>
<path style="fill:#62afde; stroke:none;" d="M578 46L579 47L578 46M593 46L594 47L593 46z"/>
<path style="fill:#9bc3e3; stroke:none;" d="M790 46L791 47L790 46M326 47L327 48L326 47M340 47L341 48L340 47z"/>
<path style="fill:#62afde; stroke:none;" d="M378 47L379 48L378 47z"/>
<path style="fill:#099cdf; stroke:none;" d="M455 47L455 50L456 50L455 47z"/>
<path style="fill:#62afde; stroke:none;" d="M464 47L465 48L464 47M480 47L481 48L480 47M495 47L496 48L495 47M592 47L593 48L592 47M814.333 47.6667L814.667 48.3333L814.333 47.6667z"/>
<path style="fill:#9bc3e3; stroke:none;" d="M129 48L130 49L129 48z"/>
<path style="fill:#62afde; stroke:none;" d="M141.333 48.6667L141.667 49.3333L141.333 48.6667M339 48L340 49L339 48M353 48L354 49L353 48z"/>
<path style="fill:#9bc3e3; stroke:none;" d="M379 48L380 49L379 48M465 48L466 49L465 48z"/>
<path style="fill:#62afde; stroke:none;" d="M496 48L497 49L496 48z"/>
<path style="fill:#9bc3e3; stroke:none;" d="M564 48L565 49L564 48z"/>
<path style="fill:#2062ae; stroke:none;" d="M565 48C562.595 61.7656 561.664 72.2066 565 86L570 83L570 82L566 82L566 81C568.529 80.4943 568.529 80.5057 566 80L566 79L570 79L570 78L566 78L566 77L570 75L570 74L566 74L566 73C568.529 72.4943 568.529 72.5057 566 72L566 71L570 71L570 70L566 70L566 69L570 67L570 66L566 66L566 65C568.529 64.4943 568.529 64.5057 566 64L566 63L570 63L570 62L566 62L566 61L570 59L570 58L566 58L566 57C568.529 56.4943 568.529 56.5057 566 56L566 55L570 55L570 54L566 54L566 53L570 51L570 50L566 50L566 49L568 49L565 48M569 48L570 49L569 48z"/>
<path style="fill:#62afde; stroke:none;" d="M577 48L578 49L577 48M591 48L592 49L591 48M788 48L789 49L788 48z"/>
<path style="fill:#9bc3e3; stroke:none;" d="M802 48L803 49L802 48M114 49L115 50L114 49z"/>
<path style="fill:#62afde; stroke:none;" d="M325 49L326 50L325 49z"/>
<path style="fill:#9bc3e3; stroke:none;" d="M352 49L353 50L352 49M466 49L467 50L466 49z"/>
<path style="fill:#62afde; stroke:none;" d="M497 49L498 50L497 49M564 49L565 50L564 49z"/>
<path style="fill:#9bc3e3; stroke:none;" d="M590 49L591 50L590 49z"/>
<path style="fill:#62afde; stroke:none;" d="M699 49L699 50L787 50L760 49L699 49z"/>
<path style="fill:#9bc3e3; stroke:none;" d="M787 49L788 50L787 49z"/>
<path style="fill:#62afde; stroke:none;" d="M802 49L803 50L802 49z"/>
<path style="fill:#9bc3e3; stroke:none;" d="M814.333 49.6667L814.667 50.3333L814.333 49.6667M141 50L142 51L141 50z"/>
<path style="fill:#62afde; stroke:none;" d="M338 50L339 51L338 50z"/>
<path style="fill:#9bc3e3; stroke:none;" d="M366 50L367 51L366 50M380 50L381 51L380 50M467 50L468 51L467 50M482 50L483 51L482 50M498 50L499 51L498 50z"/>
<path style="fill:#099cdf; stroke:none;" d="M564 50L565 51L564 50z"/>
<path style="fill:#62afde; stroke:none;" d="M576 50L577 51L576 50M608 50L609 51L608 50z"/>
<path style="fill:#9bc3e3; stroke:none;" d="M609.667 50.3333L610.333 50.6667L609.667 50.3333M128 51L129 52L128 51z"/>
<path style="fill:#62afde; stroke:none;" d="M324 51L325 52L324 51z"/>
<path style="fill:#9bc3e3; stroke:none;" d="M351 51L352 52L351 51M365 51L366 52L365 51z"/>
<path style="fill:#62afde; stroke:none;" d="M367 51L368 52L367 51z"/>
<path style="fill:#099cdf; stroke:none;" d="M455 51L455 55L456 55L455 51z"/>
<path style="fill:#9bc3e3; stroke:none;" d="M483 51L484 52L483 51M499 51L500 52L499 51M563 51L564 52L563 51z"/>
<path style="fill:#099cdf; stroke:none;" d="M566 51L567 52L566 51z"/>
<path style="fill:#9bc3e3; stroke:none;" d="M606 51L607 52L606 51M801 51L802 52L801 51M323 52L324 53L323 52M337 52L338 53L337 52z"/>
<path style="fill:#62afde; stroke:none;" d="M364 52L365 53L364 52z"/>
<path style="fill:#9bc3e3; stroke:none;" d="M367 52L368 53L367 52z"/>
<path style="fill:#62afde; stroke:none;" d="M381 52L382 53L381 52z"/>
<path style="fill:#099cdf; stroke:none;" d="M468 52L469 53L468 52z"/>
<path style="fill:#62afde; stroke:none;" d="M484 52L485 53L484 52z"/>
<path style="fill:#9bc3e3; stroke:none;" d="M500 52L501 53L500 52z"/>
<path style="fill:#62afde; stroke:none;" d="M563 52L564 53L563 52z"/>
<path style="fill:#2062ae; stroke:none;" d="M569 52L570 53L569 52M574 52L575 53L574 52z"/>
<path style="fill:#62afde; stroke:none;" d="M575 52L576 53L575 52z"/>
<path style="fill:#9bc3e3; stroke:none;" d="M588 52L589 53L588 52z"/>
<path style="fill:#62afde; stroke:none;" d="M604 52L605 53L604 52M813 52L814 53L813 52M127 53L128 54L127 53z"/>
<path style="fill:#9bc3e3; stroke:none;" d="M140 53L141 54L140 53z"/>
<path style="fill:#62afde; stroke:none;" d="M350 53L351 54L350 53z"/>
<path style="fill:#9bc3e3; stroke:none;" d="M364 53L365 54L364 53z"/>
<path style="fill:#62afde; stroke:none;" d="M368 53L369 54L368 53M469 53L470 54L469 53M485 53L486 54L485 53z"/>
<path style="fill:#099cdf; stroke:none;" d="M563 53L563 55L565 53L563 53z"/>
<path style="fill:#9bc3e3; stroke:none;" d="M575 53L576 54L575 53M603 53L604 54L603 53z"/>
<path style="fill:#62afde; stroke:none;" d="M800 53L801 54L800 53z"/>
<path style="fill:#9bc3e3; stroke:none;" d="M813 53L814 54L813 53M126 54L127 55L126 54M322 54L323 55L322 54M336 54L337 55L336 54z"/>
<path style="fill:#62afde; stroke:none;" d="M363 54L364 55L363 54M382 54L383 55L382 54M470 54L471 55L470 54M486 54L487 55L486 54z"/>
<path style="fill:#099cdf; stroke:none;" d="M501 54L502 55L501 54z"/>
<path style="fill:#9bc3e3; stroke:none;" d="M562 54L563 55L562 54z"/>
<path style="fill:#62afde; stroke:none;" d="M587 54L588 55L587 54z"/>
<path style="fill:#9bc3e3; stroke:none;" d="M799 54L800 55L799 54z"/>
<path style="fill:#62afde; stroke:none;" d="M139 55L140 56L139 55M335 55L336 56L335 55M349 55L350 56L349 55z"/>
<path style="fill:#9bc3e3; stroke:none;" d="M369 55L370 56L369 55M383 55L384 56L383 55M455 55L456 56L455 55z"/>
<path style="fill:#62afde; stroke:none;" d="M471 55L472 56L471 55z"/>
<path style="fill:#099cdf; stroke:none;" d="M487 55L488 56L487 55z"/>
<path style="fill:#62afde; stroke:none;" d="M502 55L503 56L502 55M562.333 55.6667L562.667 56.3333L562.333 55.6667M574 55L575 56L574 55M812 55L813 56L812 55z"/>
<path style="fill:#9bc3e3; stroke:none;" d="M139 56L140 57L139 56z"/>
<path style="fill:#62afde; stroke:none;" d="M321 56L322 57L321 56z"/>
<path style="fill:#9bc3e3; stroke:none;" d="M348 56L349 57L348 56M362 56L363 57L362 56M456 56L457 57L456 56M472 56L473 57L472 56z"/>
<path style="fill:#62afde; stroke:none;" d="M503 56L504 57L503 56z"/>
<path style="fill:#099cdf; stroke:none;" d="M563 56L564 57L563 56z"/>
<path style="fill:#2062ae; stroke:none;" d="M569 56L570 57L569 56z"/>
<path style="fill:#9bc3e3; stroke:none;" d="M574 56L575 57L574 56M586 56L587 57L586 56M123 57L124 58L123 57z"/>
<path style="fill:#62afde; stroke:none;" d="M334 57L335 58L334 57z"/>
<path style="fill:#9bc3e3; stroke:none;" d="M370 57L371 58L370 57M384 57L385 58L384 57M457 57L458 58L457 57M473 57L474 58L473 57M488 57L489 58L488 57z"/>
<path style="fill:#62afde; stroke:none;" d="M504 57L505 58L504 57z"/>
<path style="fill:#099cdf; stroke:none;" d="M562 57L562 60L563 60L562 57M564 57L565 58L564 57z"/>
<path style="fill:#9bc3e3; stroke:none;" d="M599 57L600 58L599 57M796 57L797 58L796 57z"/>
<path style="fill:#62afde; stroke:none;" d="M811 57L812 58L811 57z"/>
<path style="fill:#9bc3e3; stroke:none;" d="M122 58L123 59L122 58M138 58L139 59L138 58z"/>
<path style="fill:#62afde; stroke:none;" d="M320 58L321 59L320 58z"/>
<path style="fill:#9bc3e3; stroke:none;" d="M347 58L348 59L347 58M361 58L362 59L361 58z"/>
<path style="fill:#62afde; stroke:none;" d="M371 58L372 59L371 58M458 58L459 59L458 58z"/>
<path style="fill:#9bc3e3; stroke:none;" d="M489 58L490 59L489 58M505 58L506 59L505 58z"/>
<path style="fill:#62afde; stroke:none;" d="M598 58L599 59L598 58z"/>
<path style="fill:#9bc3e3; stroke:none;" d="M795 58L796 59L795 58M120 59L121 60L120 59z"/>
<path style="fill:#62afde; stroke:none;" d="M137 59L138 60L137 59z"/>
<path style="fill:#9bc3e3; stroke:none;" d="M319 59L320 60L319 59M333 59L334 60L333 59z"/>
<path style="fill:#62afde; stroke:none;" d="M360 59L361 60L360 59M385 59L386 60L385 59M459 59L460 60L459 59z"/>
<path style="fill:#9bc3e3; stroke:none;" d="M490 59L491 60L490 59M506 59L507 60L506 59M561.333 59.6667L561.667 60.3333L561.333 59.6667z"/>
<path style="fill:#099cdf; stroke:none;" d="M566 59L567 60L566 59z"/>
<path style="fill:#2062ae; stroke:none;" d="M572 59L573 60L572 59z"/>
<path style="fill:#62afde; stroke:none;" d="M573 59L574 60L573 59z"/>
<path style="fill:#9bc3e3; stroke:none;" d="M585 59L586 60L585 59M793 59L794 60L793 59z"/>
<path style="fill:#62afde; stroke:none;" d="M794 59L795 60L794 59z"/>
<path style="fill:#9bc3e3; stroke:none;" d="M810 59L811 60L810 59M118 60L119 61L118 60z"/>
<path style="fill:#62afde; stroke:none;" d="M346 60L347 61L346 60M372 60L373 61L372 60z"/>
<path style="fill:#9bc3e3; stroke:none;" d="M386 60L387 61L386 60z"/>
<path style="fill:#099cdf; stroke:none;" d="M460 60L461 61L460 60z"/>
<path style="fill:#62afde; stroke:none;" d="M475 60L476 61L475 60M491 60L492 61L491 60z"/>
<path style="fill:#2062ae; stroke:none;" d="M569 60L570 61L569 60z"/>
<path style="fill:#9bc3e3; stroke:none;" d="M573.333 60.6667L573.667 61.3333L573.333 60.6667z"/>
<path style="fill:#62afde; stroke:none;" d="M585 60L586 61L585 60M597 60L598 61L597 60z"/>
<path style="fill:#9bc3e3; stroke:none;" d="M791 60L792 61L791 60z"/>
<path style="fill:#62afde; stroke:none;" d="M792 60L793 61L792 60z"/>
<path style="fill:#9bc3e3; stroke:none;" d="M26 61L26 62L116 62L88 61L26 61z"/>
<path style="fill:#62afde; stroke:none;" d="M116 61L117 62L116 61z"/>
<path style="fill:#9bc3e3; stroke:none;" d="M136 61L137 62L136 61M318 61L319 62L318 61M332 61L333 62L332 61M345 61L346 62L345 61z"/>
<path style="fill:#62afde; stroke:none;" d="M359 61L360 62L359 61M386 61L387 62L386 61M476 61L477 62L476 61M492 61L493 62L492 61M561 61L561 66L562 66L561 61z"/>
<path style="fill:#099cdf; stroke:none;" d="M564 61L565 62L564 61z"/>
<path style="fill:#9bc3e3; stroke:none;" d="M597 61L598 62L597 61M699 61L699 62L789 62L761 61L699 61z"/>
<path style="fill:#62afde; stroke:none;" d="M789 61L790 62L789 61z"/>
<path style="fill:#9bc3e3; stroke:none;" d="M135 62L136 63L135 62z"/>
<path style="fill:#62afde; stroke:none;" d="M331 62L332 63L331 62M373 62L374 63L373 62z"/>
<path style="fill:#9bc3e3; stroke:none;" d="M387 62L388 63L387 62z"/>
<path style="fill:#62afde; stroke:none;" d="M477 62L478 63L477 62z"/>
<path style="fill:#099cdf; stroke:none;" d="M493 62L494 63L493 62z"/>
<path style="fill:#62afde; stroke:none;" d="M508 62L509 63L508 62z"/>
<path style="fill:#9bc3e3; stroke:none;" d="M698 62L698 120L699 120L699 81L698 62M808 62L809 63L808 62z"/>
<path style="fill:#62afde; stroke:none;" d="M134 63L135 64L134 63M317 63L318 64L317 63z"/>
<path style="fill:#9bc3e3; stroke:none;" d="M344 63L345 64L344 63M358 63L359 64L358 63M462 63L463 64L462 63M478 63L479 64L478 63z"/>
<path style="fill:#62afde; stroke:none;" d="M509 63L510 64L509 63z"/>
<path style="fill:#9bc3e3; stroke:none;" d="M584 63L584 71L585 71L584 63z"/>
<path style="fill:#62afde; stroke:none;" d="M596 63L597 64L596 63M807 63L808 64L807 63z"/>
<path style="fill:#9bc3e3; stroke:none;" d="M316 64L317 65L316 64M330 64L331 65L330 64M374 64L375 65L374 64M388 64L389 65L388 64M463 64L464 65L463 64M479 64L480 65L479 64z"/>
<path style="fill:#62afde; stroke:none;" d="M510 64L511 65L510 64z"/>
<path style="fill:#2062ae; stroke:none;" d="M569 64L570 65L569 64z"/>
<path style="fill:#9bc3e3; stroke:none;" d="M596 64L596 71L597 71L596 64z"/>
<path style="fill:#62afde; stroke:none;" d="M806 64L807 65L806 64M343 65L344 66L343 65z"/>
<path style="fill:#9bc3e3; stroke:none;" d="M357 65L358 66L357 65z"/>
<path style="fill:#62afde; stroke:none;" d="M464 65L465 66L464 65z"/>
<path style="fill:#9bc3e3; stroke:none;" d="M480 65L481 66L480 65M495 65L496 66L495 65M511 65L512 66L511 65z"/>
<path style="fill:#099cdf; stroke:none;" d="M512 65L513 66L512 65M564 65L565 66L564 65z"/>
<path style="fill:#62afde; stroke:none;" d="M805 65L806 66L805 65M131 66L132 67L131 66z"/>
<path style="fill:#9bc3e3; stroke:none;" d="M315 66L316 67L315 66M329 66L330 67L329 66z"/>
<path style="fill:#62afde; stroke:none;" d="M356 66L357 67L356 66z"/>
<path style="fill:#9bc3e3; stroke:none;" d="M375 66L376 67L375 66z"/>
<path style="fill:#62afde; stroke:none;" d="M389 66L390 67L389 66M465 66L466 67L465 66z"/>
<path style="fill:#9bc3e3; stroke:none;" d="M496 66L497 67L496 66z"/>
<path style="fill:#099cdf; stroke:none;" d="M561.333 66.6667L561.667 67.3333L561.333 66.6667z"/>
<path style="fill:#9bc3e3; stroke:none;" d="M804 66L805 67L804 66M842 66L842 70L843 70L842 66M865.333 66.6667L865.667 67.3333L865.333 66.6667z"/>
<path style="fill:#62afde; stroke:none;" d="M910.333 66.6667L910.667 67.3333L910.333 66.6667z"/>
<path style="fill:#9bc3e3; stroke:none;" d="M130 67L131 68L130 67z"/>
<path style="fill:#62afde; stroke:none;" d="M328 67L329 68L328 67M342 67L343 68L342 67M376 67L377 68L376 67z"/>
<path style="fill:#9bc3e3; stroke:none;" d="M390 67L391 68L390 67z"/>
<path style="fill:#62afde; stroke:none;" d="M466 67L467 68L466 67z"/>
<path style="fill:#099cdf; stroke:none;" d="M481 67L482 68L481 67z"/>
<path style="fill:#62afde; stroke:none;" d="M497 67L498 68L497 67z"/>
<path style="fill:#099cdf; stroke:none;" d="M566 67L567 68L566 67z"/>
<path style="fill:#9bc3e3; stroke:none;" d="M803 67L804 68L803 67M830 67L830 71L831 71L830 67z"/>
<path style="fill:#62afde; stroke:none;" d="M933.333 67.6667L933.667 68.3333L933.333 67.6667z"/>
<path style="fill:#9bc3e3; stroke:none;" d="M314 68L315 69L314 68M328 68L329 69L328 68M341 68L342 69L341 68z"/>
<path style="fill:#62afde; stroke:none;" d="M355 68L356 69L355 68M482 68L483 69L482 68M498 68L499 69L498 68M561 68L561 73L562 73L561 68z"/>
<path style="fill:#2062ae; stroke:none;" d="M569 68L570 69L569 68z"/>
<path style="fill:#62afde; stroke:none;" d="M801 68L802 69L801 68M865 68L866 69L865 68M921 68L922 69L921 68z"/>
<path style="fill:#9bc3e3; stroke:none;" d="M127 69L128 70L127 69z"/>
<path style="fill:#62afde; stroke:none;" d="M327 69L328 70L327 69z"/>
<path style="fill:#9bc3e3; stroke:none;" d="M377 69L378 70L377 69M391 69L392 70L391 69z"/>
<path style="fill:#62afde; stroke:none;" d="M483 69L484 70L483 69M499 69L500 70L499 69z"/>
<path style="fill:#099cdf; stroke:none;" d="M564 69L565 70L564 69z"/>
<path style="fill:#9bc3e3; stroke:none;" d="M800 69L801 70L800 69z"/>
<path style="fill:#62afde; stroke:none;" d="M854.333 69.6667L854.667 70.3333L854.333 69.6667z"/>
<path style="fill:#9bc3e3; stroke:none;" d="M909 69L910 70L909 69M921.333 69.6667L921.667 70.3333L921.333 69.6667z"/>
<path style="fill:#62afde; stroke:none;" d="M125 70L126 71L125 70M313 70L314 71L313 70z"/>
<path style="fill:#9bc3e3; stroke:none;" d="M340 70L341 71L340 70M354 70L355 71L354 70M468 70L469 71L468 70M484 70L485 71L484 70z"/>
<path style="fill:#099cdf; stroke:none;" d="M500 70L501 71L500 70z"/>
<path style="fill:#9bc3e3; stroke:none;" d="M798 70L799 71L798 70z"/>
<path style="fill:#62afde; stroke:none;" d="M842.333 70.6667L842.667 71.3333L842.333 70.6667M909 70L910 71L909 70z"/>
<path style="fill:#9bc3e3; stroke:none;" d="M123 71L124 72L123 71M312 71L313 72L312 71M326 71L327 72L326 71z"/>
<path style="fill:#62afde; stroke:none;" d="M353 71L354 72L353 71z"/>
<path style="fill:#9bc3e3; stroke:none;" d="M378 71L379 72L378 71z"/>
<path style="fill:#62afde; stroke:none;" d="M392 71L393 72L392 71z"/>
<path style="fill:#9bc3e3; stroke:none;" d="M469 71L470 72L469 71M485 71L486 72L485 71z"/>
<path style="fill:#62afde; stroke:none;" d="M596 71L597 72L596 71M795 71L796 72L795 71z"/>
<path style="fill:#9bc3e3; stroke:none;" d="M796 71L797 72L796 71M854 71L855 72L854 71z"/>
<path style="fill:#62afde; stroke:none;" d="M866 71L867 72L866 71z"/>
<path style="fill:#9bc3e3; stroke:none;" d="M120 72L121 73L120 72z"/>
<path style="fill:#62afde; stroke:none;" d="M339 72L340 73L339 72z"/>
<path style="fill:#9bc3e3; stroke:none;" d="M353 72L354 73L353 72z"/>
<path style="fill:#62afde; stroke:none;" d="M379 72L380 73L379 72z"/>
<path style="fill:#9bc3e3; stroke:none;" d="M470 72L471 73L470 72M486 72L487 73L486 72M501 72L502 73L501 72z"/>
<path style="fill:#2062ae; stroke:none;" d="M569 72L570 73L569 72z"/>
<path style="fill:#9bc3e3; stroke:none;" d="M573.333 72.6667L573.667 73.3333L573.333 72.6667z"/>
<path style="fill:#62afde; stroke:none;" d="M792 72L793 73L792 72z"/>
<path style="fill:#9bc3e3; stroke:none;" d="M793 72L794 73L793 72M908 72L909 73L908 72z"/>
<path style="fill:#62afde; stroke:none;" d="M920 72L921 73L920 72z"/>
<path style="fill:#9bc3e3; stroke:none;" d="M932.333 72.6667L932.667 73.3333L932.333 72.6667z"/>
<path style="fill:#62afde; stroke:none;" d="M944.333 72.6667L944.667 73.3333L944.333 72.6667z"/>
<path style="fill:#9bc3e3; stroke:none;" d="M38 73L38 74L117 74L92 73L38 73M181 73L181 74L193 74L181 73M311 73L312 74L311 73M325 73L326 74L325 73M338 73L339 74L338 73z"/>
<path style="fill:#62afde; stroke:none;" d="M352 73L353 74L352 73z"/>
<path style="fill:#9bc3e3; stroke:none;" d="M366 73L367 74L366 73z"/>
<path style="fill:#62afde; stroke:none;" d="M393 73L394 74L393 73z"/>
<path style="fill:#9bc3e3; stroke:none;" d="M455 73L457 75L455 73z"/>
<path style="fill:#62afde; stroke:none;" d="M471 73L472 74L471 73z"/>
<path style="fill:#9bc3e3; stroke:none;" d="M502 73L503 74L502 73M561 73L561 76L562 76L561 73z"/>
<path style="fill:#099cdf; stroke:none;" d="M564 73L565 74L564 73z"/>
<path style="fill:#62afde; stroke:none;" d="M585.333 73.6667L585.667 74.3333L585.333 73.6667z"/>
<path style="fill:#9bc3e3; stroke:none;" d="M597 73L598 74L597 73z"/>
<path style="fill:#62afde; stroke:none;" d="M710 73L710 109L711 109C711 98.6131 714.011 82.5595 710 73z"/>
<path style="fill:#9bc3e3; stroke:none;" d="M711 73L711 74L790 74L765 73L711 73z"/>
<path style="fill:#62afde; stroke:none;" d="M831 73L832 74L831 73z"/>
<path style="fill:#9bc3e3; stroke:none;" d="M843.333 73.6667L843.667 74.3333L843.333 73.6667z"/>
<path style="fill:#62afde; stroke:none;" d="M855 73L856 74L855 73z"/>
<path style="fill:#9bc3e3; stroke:none;" d="M867 73L868 74L867 73M920.333 73.6667L920.667 74.3333L920.333 73.6667z"/>
<path style="fill:#62afde; stroke:none;" d="M37 74L37 108L38 108L37 74M324 74L325 75L324 74M338 74L339 75L338 74z"/>
<path style="fill:#9bc3e3; stroke:none;" d="M365 74L366 75L365 74M380 74L381 75L380 74M394 74L395 75L394 74z"/>
<path style="fill:#099cdf; stroke:none;" d="M455 74L455 78L456 78L455 74z"/>
<path style="fill:#62afde; stroke:none;" d="M472 74L473 75L472 74z"/>
<path style="fill:#099cdf; stroke:none;" d="M487 74L488 75L487 74z"/>
<path style="fill:#9bc3e3; stroke:none;" d="M503 74L504 75L503 74z"/>
<path style="fill:#62afde; stroke:none;" d="M573.333 74.6667L573.667 75.3333L573.333 74.6667M597 74L598 75L597 74z"/>
<path style="fill:#9bc3e3; stroke:none;" d="M831.333 74.6667L831.667 75.3333L831.333 74.6667M855 74L856 75L855 74M907 74L908 75L907 74z"/>
<path style="fill:#62afde; stroke:none;" d="M932 74L933 75L932 74z"/>
<path style="fill:#9bc3e3; stroke:none;" d="M944 74L945 75L944 74z"/>
<path style="fill:#62afde; stroke:none;" d="M310 75L311 76L310 75z"/>
<path style="fill:#9bc3e3; stroke:none;" d="M337 75L338 76L337 75M351 75L352 76L351 75z"/>
<path style="fill:#62afde; stroke:none;" d="M367 75L368 76L367 75z"/>
<path style="fill:#9bc3e3; stroke:none;" d="M457 75L458 76L457 75z"/>
<path style="fill:#62afde; stroke:none;" d="M488 75L489 76L488 75M504 75L505 76L504 75z"/>
<path style="fill:#099cdf; stroke:none;" d="M562 75L562 78L563 78L562 75M566 75L567 76L566 75z"/>
<path style="fill:#2062ae; stroke:none;" d="M572 75L573 76L572 75z"/>
<path style="fill:#9bc3e3; stroke:none;" d="M585 75L586 76L585 75z"/>
<path style="fill:#62afde; stroke:none;" d="M843 75L844 76L843 75M868 75L869 76L868 75M323 76L324 77L323 76z"/>
<path style="fill:#9bc3e3; stroke:none;" d="M364 76L365 77L364 76M368 76L369 77L368 76M381 76L382 77L381 76M395 76L396 77L395 76z"/>
<path style="fill:#62afde; stroke:none;" d="M489 76L490 77L489 76M505 76L506 77L505 76z"/>
<path style="fill:#2062ae; stroke:none;" d="M569 76L570 77L569 76z"/>
<path style="fill:#62afde; stroke:none;" d="M598 76L599 77L598 76M856 76L857 77L856 76z"/>
<path style="fill:#9bc3e3; stroke:none;" d="M869 76L870 77L869 76z"/>
<path style="fill:#62afde; stroke:none;" d="M906 76L907 77L906 76z"/>
<path style="fill:#9bc3e3; stroke:none;" d="M919 76L920 77L919 76M931 76L932 77L931 76z"/>
<path style="fill:#62afde; stroke:none;" d="M309 77L310 78L309 77z"/>
<path style="fill:#9bc3e3; stroke:none;" d="M336 77L337 78L336 77M350 77L351 78L350 77z"/>
<path style="fill:#62afde; stroke:none;" d="M382 77L383 78L382 77z"/>
<path style="fill:#9bc3e3; stroke:none;" d="M474 77L475 78L474 77M490 77L491 78L490 77z"/>
<path style="fill:#099cdf; stroke:none;" d="M506 77L507 78L506 77M564 77L565 78L564 77z"/>
<path style="fill:#62afde; stroke:none;" d="M586 77L587 78L586 77z"/>
<path style="fill:#9bc3e3; stroke:none;" d="M599 77L600 78L599 77M844 77L845 78L844 77M856 77L857 78L856 77M905 77L906 78L905 77z"/>
<path style="fill:#62afde; stroke:none;" d="M931 77L932 78L931 77M943 77L944 78L943 77z"/>
<path style="fill:#9bc3e3; stroke:none;" d="M308 78L309 79L308 78M322 78L323 79L322 78z"/>
<path style="fill:#62afde; stroke:none;" d="M349 78L350 79L349 78M363 78L364 79L363 78z"/>
<path style="fill:#9bc3e3; stroke:none;" d="M369 78L370 79L369 78M382 78L383 79L382 78z"/>
<path style="fill:#62afde; stroke:none;" d="M396 78L397 79L396 78M459 78L460 79L459 78z"/>
<path style="fill:#9bc3e3; stroke:none;" d="M475 78L476 79L475 78M491 78L492 79L491 78z"/>
<path style="fill:#62afde; stroke:none;" d="M562 78L563 79L562 78z"/>
<path style="fill:#9bc3e3; stroke:none;" d="M574 78L575 79L574 78M586 78L587 79L586 78z"/>
<path style="fill:#62afde; stroke:none;" d="M832 78L833 79L832 78M844 78L845 79L844 78M870 78L871 79L870 78z"/>
<path style="fill:#9bc3e3; stroke:none;" d="M904 78L905 79L904 78M918 78L919 79L918 78M943 78L944 79L943 78z"/>
<path style="fill:#62afde; stroke:none;" d="M335 79L336 80L335 79z"/>
<path style="fill:#9bc3e3; stroke:none;" d="M349 79L350 80L349 79M362 79L363 80L362 79z"/>
<path style="fill:#62afde; stroke:none;" d="M383 79L384 80L383 79z"/>
<path style="fill:#099cdf; stroke:none;" d="M455 79L455 82L456 82L455 79z"/>
<path style="fill:#62afde; stroke:none;" d="M460 79L461 80L460 79z"/>
<path style="fill:#9bc3e3; stroke:none;" d="M476 79L477 80L476 79M492 79L493 80L492 79M507 79L508 80L507 79M562.333 79.6667L562.667 80.3333L562.333 79.6667z"/>
<path style="fill:#2062ae; stroke:none;" d="M573 79L574 80L573 79z"/>
<path style="fill:#62afde; stroke:none;" d="M574 79L575 80L574 79z"/>
<path style="fill:#9bc3e3; stroke:none;" d="M832 79L833 80L832 79M857 79L858 80L857 79z"/>
<path style="fill:#62afde; stroke:none;" d="M871 79L872 80L871 79z"/>
<path style="fill:#9bc3e3; stroke:none;" d="M903 79L904 80L903 79M930 79L931 80L930 79M307 80L308 81L307 80M321 80L322 81L321 80M334 80L335 81L334 80z"/>
<path style="fill:#62afde; stroke:none;" d="M348 80L349 81L348 80M362 80L363 81L362 80M370 80L371 81L370 80M397 80L398 81L397 80M461 80L462 81L461 80M477 80L478 81L477 80z"/>
<path style="fill:#9bc3e3; stroke:none;" d="M508 80L509 81L508 80z"/>
<path style="fill:#099cdf; stroke:none;" d="M563 80L563 82L565 82L563 80z"/>
<path style="fill:#2062ae; stroke:none;" d="M569 80L570 81L569 80z"/>
<path style="fill:#9bc3e3; stroke:none;" d="M587 80L588 81L587 80M845 80L846 81L845 80z"/>
<path style="fill:#62afde; stroke:none;" d="M858 80L859 81L858 80z"/>
<path style="fill:#9bc3e3; stroke:none;" d="M902 80L903 81L902 80M917 80L918 81L917 80z"/>
<path style="fill:#62afde; stroke:none;" d="M930 80L931 81L930 80M320 81L321 82L320 81M334 81L335 82L334 81z"/>
<path style="fill:#9bc3e3; stroke:none;" d="M361 81L362 82L361 81M384 81L385 82L384 81M398 81L399 82L398 81M462 81L463 82L462 81z"/>
<path style="fill:#62afde; stroke:none;" d="M478 81L479 82L478 81z"/>
<path style="fill:#099cdf; stroke:none;" d="M493 81L494 82L493 81z"/>
<path style="fill:#9bc3e3; stroke:none;" d="M509 81L510 82L509 81M575 81L576 82L575 81M603 81L604 82L603 81z"/>
<path style="fill:#62afde; stroke:none;" d="M833 81L834 82L833 81M845 81L846 82L845 81M901 81L902 82L901 81z"/>
<path style="fill:#9bc3e3; stroke:none;" d="M942 81L943 82L942 81z"/>
<path style="fill:#62afde; stroke:none;" d="M306 82L307 83L306 82z"/>
<path style="fill:#9bc3e3; stroke:none;" d="M333 82L334 83L333 82M347 82L348 83L347 82z"/>
<path style="fill:#62afde; stroke:none;" d="M371 82L372 83L371 82z"/>
<path style="fill:#9bc3e3; stroke:none;" d="M463 82L464 83L463 82z"/>
<path style="fill:#62afde; stroke:none;" d="M479 82L480 83L479 82M494 82L495 83L494 82M510 82L511 83L510 82M563 82L564 83L563 82z"/>
<path style="fill:#2062ae; stroke:none;" d="M574 82L575 83L574 82z"/>
<path style="fill:#62afde; stroke:none;" d="M575 82L576 83L575 82z"/>
<path style="fill:#9bc3e3; stroke:none;" d="M588 82L589 83L588 82z"/>
<path style="fill:#62afde; stroke:none;" d="M604 82L605 83L604 82z"/>
<path style="fill:#9bc3e3; stroke:none;" d="M833 82L834 83L833 82M846 82L847 83L846 82M859 82L860 83L859 82M875 82L876 83L875 82M899 82L900 83L899 82z"/>
<path style="fill:#62afde; stroke:none;" d="M900 82L901 83L900 82M929 82L930 83L929 82z"/>
<path style="fill:#9bc3e3; stroke:none;" d="M305 83L306 84L305 83M319 83L320 84L319 83M360 83L361 84L360 83M372 83L373 84L372 83M385 83L386 84L385 83M399 83L400 84L399 83z"/>
<path style="fill:#099cdf; stroke:none;" d="M455 83L455 86L456 86L455 83z"/>
<path style="fill:#9bc3e3; stroke:none;" d="M464 83L465 84L464 83z"/>
<path style="fill:#62afde; stroke:none;" d="M495 83L496 84L495 83M511 83L512 84L511 83z"/>
<path style="fill:#9bc3e3; stroke:none;" d="M563 83L564 84L563 83z"/>
<path style="fill:#099cdf; stroke:none;" d="M566 83L567 84L566 83z"/>
<path style="fill:#62afde; stroke:none;" d="M589 83L590 84L589 83z"/>
<path style="fill:#9bc3e3; stroke:none;" d="M606 83L607 84L606 83z"/>
<path style="fill:#62afde; stroke:none;" d="M846 83L847 84L846 83M860 83L861 84L860 83z"/>
<path style="fill:#9bc3e3; stroke:none;" d="M877 83L878 84L877 83z"/>
<path style="fill:#62afde; stroke:none;" d="M898 83L899 84L898 83z"/>
<path style="fill:#9bc3e3; stroke:none;" d="M915 83L916 84L915 83z"/>
<path style="fill:#62afde; stroke:none;" d="M941 83L942 84L941 83M305 84L306 85L305 84z"/>
<path style="fill:#9bc3e3; stroke:none;" d="M332 84L333 85L332 84M346 84L347 85L346 84z"/>
<path style="fill:#62afde; stroke:none;" d="M386 84L387 85L386 84M496 84L497 85L496 84M512 84L513 85L512 84z"/>
<path style="fill:#099cdf; stroke:none;" d="M564 84L565 85L564 84z"/>
<path style="fill:#2062ae; stroke:none;" d="M569 84L570 85L569 84M575 84L576 85L575 84z"/>
<path style="fill:#62afde; stroke:none;" d="M576 84L577 85L576 84M608 84L609 85L608 84z"/>
<path style="fill:#9bc3e3; stroke:none;" d="M609 84L610 85L609 84z"/>
<path style="fill:#62afde; stroke:none;" d="M834 84L835 85L834 84z"/>
<path style="fill:#9bc3e3; stroke:none;" d="M847 84L848 85L847 84M879 84L880 85L879 84M895 84L896 85L895 84z"/>
<path style="fill:#62afde; stroke:none;" d="M896 84L897 85L896 84M914 84L915 85L914 84M928 84L929 85L928 84z"/>
<path style="fill:#9bc3e3; stroke:none;" d="M941 84L942 85L941 84M49 85L50 86L49 85z"/>
<path style="fill:#62afde; stroke:none;" d="M254 85L254 86L274 86L254 85z"/>
<path style="fill:#9bc3e3; stroke:none;" d="M304 85L305 86L304 85M318 85L319 86L318 85z"/>
<path style="fill:#62afde; stroke:none;" d="M345 85L346 86L345 85z"/>
<path style="fill:#9bc3e3; stroke:none;" d="M359 85L360 86L359 85M373 85L374 86L373 85z"/>
<path style="fill:#62afde; stroke:none;" d="M400 85L401 86L400 85z"/>
<path style="fill:#099cdf; stroke:none;" d="M465 85L466 86L465 85z"/>
<path style="fill:#9bc3e3; stroke:none;" d="M481 85L482 86L481 85M497 85L498 86L497 85z"/>
<path style="fill:#099cdf; stroke:none;" d="M513 85L514 86L513 85z"/>
<path style="fill:#62afde; stroke:none;" d="M564 85L565 86L564 85z"/>
<path style="fill:#9bc3e3; stroke:none;" d="M590 85L591 86L590 85z"/>
<path style="fill:#62afde; stroke:none;" d="M612 85L612 86L653 86L653 97L652.397 86.0278L641 85L612 85z"/>
<path style="fill:#9bc3e3; stroke:none;" d="M653 85L654 86L653 85M665 85L665 108L609 108L609 109L649 109C652.929 109 661.15 110.544 664.397 107.972C668.143 105.005 666.668 88.9749 665 85z"/>
<path style="fill:#62afde; stroke:none;" d="M666 85L666 86L677 86L666 85z"/>
<path style="fill:#9bc3e3; stroke:none;" d="M677 85L677 120L678 120L677 85M722 85L723 86L722 85z"/>
<path style="fill:#62afde; stroke:none;" d="M723 85L723 86L734 86L723 85M882 85L883 86L882 85z"/>
<path style="fill:#9bc3e3; stroke:none;" d="M883 85L884 86L883 85M890 85L890 86L893 86L890 85z"/>
<path style="fill:#62afde; stroke:none;" d="M893 85L894 86L893 85M913 85L914 86L913 85M49 86L49 109L50 109L49 86z"/>
<path style="fill:#9bc3e3; stroke:none;" d="M61 86L61 120L62 120L61 86M274 86L274 120L275 120L274 86z"/>
<path style="fill:#62afde; stroke:none;" d="M331 86L332 87L331 86M360 86L361 87L360 86z"/>
<path style="fill:#9bc3e3; stroke:none;" d="M387 86L388 87L387 86M401 86L402 87L401 86z"/>
<path style="fill:#62afde; stroke:none;" d="M466 86L467 87L466 86z"/>
<path style="fill:#9bc3e3; stroke:none;" d="M482 86L483 87L482 86M498 86L499 87L498 86M564 86L565 87L564 86z"/>
<path style="fill:#2062ae; stroke:none;" d="M566 86L566 87L570 87L566 86z"/>
<path style="fill:#62afde; stroke:none;" d="M577 86L578 87L577 86M591 86L592 87L591 86M722 86L723 87L722 86M835 86L836 87L835 86z"/>
<path style="fill:#9bc3e3; stroke:none;" d="M848 86L849 87L848 86M862 86L863 87L862 86z"/>
<path style="fill:#62afde; stroke:none;" d="M927 86L928 87L927 86z"/>
<path style="fill:#9bc3e3; stroke:none;" d="M940 86L941 87L940 86M303 87L304 88L303 87M317 87L318 88L317 87z"/>
<path style="fill:#62afde; stroke:none;" d="M344 87L345 88L344 87M374 87L375 88L374 87z"/>
<path style="fill:#099cdf; stroke:none;" d="M455 87L455 92L456 92L455 87z"/>
<path style="fill:#62afde; stroke:none;" d="M483 87L484 88L483 87z"/>
<path style="fill:#9bc3e3; stroke:none;" d="M499 87L500 88L499 87M514 87L515 88L514 87z"/>
<path style="fill:#62afde; stroke:none;" d="M592 87L593 88L592 87z"/>
<path style="fill:#9bc3e3; stroke:none;" d="M722 87L723 88L722 87M835 87L836 88L835 87M863 87L864 88L863 87M926 87L927 88L926 87z"/>
<path style="fill:#62afde; stroke:none;" d="M316 88L317 89L316 88M330 88L331 89L330 88M361 88L362 89L361 88z"/>
<path style="fill:#9bc3e3; stroke:none;" d="M375 88L376 89L375 88M388 88L389 89L388 88M402 88L403 89L402 88z"/>
<path style="fill:#62afde; stroke:none;" d="M484 88L485 89L484 88z"/>
<path style="fill:#9bc3e3; stroke:none;" d="M515 88L516 89L515 88M565 88L566 89L565 88z"/>
<path style="fill:#2062ae; stroke:none;" d="M566 88L567 91L568 91L568 88L566 88M569 88L570 89L569 88z"/>
<path style="fill:#62afde; stroke:none;" d="M578 88L579 89L578 88M593 88L594 89L593 88M722 88L722 95L723 95L722 88M836 88L837 89L836 88M849 88L850 89L849 88z"/>
<path style="fill:#9bc3e3; stroke:none;" d="M864 88L865 89L864 88z"/>
<path style="fill:#62afde; stroke:none;" d="M910 88L911 89L910 88M939 88L940 89L939 88M302 89L303 90L302 89z"/>
<path style="fill:#9bc3e3; stroke:none;" d="M329 89L330 90L329 89M343 89L344 90L343 89z"/>
<path style="fill:#62afde; stroke:none;" d="M375 89L376 90L375 89M389 89L390 90L389 89M485 89L486 90L485 89z"/>
<path style="fill:#099cdf; stroke:none;" d="M500 89L501 90L500 89z"/>
<path style="fill:#62afde; stroke:none;" d="M516 89L517 90L516 89z"/>
<path style="fill:#099cdf; stroke:none;" d="M566 89L567 90L566 89z"/>
<path style="fill:#9bc3e3; stroke:none;" d="M579 89L580 90L579 89M594 89L595 90L594 89M836 89L837 90L836 89M850 89L851 90L850 89z"/>
<path style="fill:#62afde; stroke:none;" d="M866 89L867 90L866 89M909 89L910 90L909 89M925 89L926 90L925 89z"/>
<path style="fill:#9bc3e3; stroke:none;" d="M315 90L316 91L315 90M362 90L363 91L362 90M376 90L377 91L376 90z"/>
<path style="fill:#62afde; stroke:none;" d="M403 90L404 91L403 90z"/>
<path style="fill:#099cdf; stroke:none;" d="M486 90L487 91L486 90z"/>
<path style="fill:#62afde; stroke:none;" d="M501 90L502 91L501 90M517 90L518 91L517 90M566 90L567 91L566 90z"/>
<path style="fill:#2062ae; stroke:none;" d="M569 90L570 91L569 90z"/>
<path style="fill:#9bc3e3; stroke:none;" d="M595 90L596 91L595 90z"/>
<path style="fill:#62afde; stroke:none;" d="M837 90L838 91L837 90z"/>
<path style="fill:#9bc3e3; stroke:none;" d="M851 90L852 91L851 90z"/>
<path style="fill:#62afde; stroke:none;" d="M867 90L868 91L867 90z"/>
<path style="fill:#9bc3e3; stroke:none;" d="M908 90L909 91L908 90M924 90L925 91L924 90z"/>
<path style="fill:#62afde; stroke:none;" d="M938 90L939 91L938 90M301 91L302 92L301 91z"/>
<path style="fill:#9bc3e3; stroke:none;" d="M328 91L329 92L328 91M342 91L343 92L342 91z"/>
<path style="fill:#62afde; stroke:none;" d="M363 91L364 92L363 91M390 91L391 92L390 91z"/>
<path style="fill:#9bc3e3; stroke:none;" d="M404 91L405 92L404 91z"/>
<path style="fill:#62afde; stroke:none;" d="M502 91L503 92L502 91M518 91L519 92L518 91z"/>
<path style="fill:#9bc3e3; stroke:none;" d="M566 91L567 92L566 91z"/>
<path style="fill:#62afde; stroke:none;" d="M580 91L581 92L580 91z"/>
<path style="fill:#9bc3e3; stroke:none;" d="M596 91L597 92L596 91M837 91L838 92L837 91M868 91L869 92L868 91M923 91L924 92L923 91M300 92L301 93L300 92M314 92L315 93L314 92z"/>
<path style="fill:#62afde; stroke:none;" d="M341 92L342 93L341 92z"/>
<path style="fill:#9bc3e3; stroke:none;" d="M363 92L364 93L363 92M377 92L378 93L377 92z"/>
<path style="fill:#62afde; stroke:none;" d="M404 92L405 93L404 92z"/>
<path style="fill:#9bc3e3; stroke:none;" d="M487 92L488 93L487 92M503 92L504 93L503 92z"/>
<path style="fill:#099cdf; stroke:none;" d="M519 92L520 93L519 92z"/>
<path style="fill:#62afde; stroke:none;" d="M567 92L568 93L567 92z"/>
<path style="fill:#2062ae; stroke:none;" d="M568.667 92.3333L569.333 92.6667L568.667 92.3333z"/>
<path style="fill:#9bc3e3; stroke:none;" d="M581 92L582 93L581 92z"/>
<path style="fill:#62afde; stroke:none;" d="M598 92L599 93L598 92M838 92L839 93L838 92M852 92L853 93L852 92M870 92L871 93L870 92z"/>
<path style="fill:#9bc3e3; stroke:none;" d="M905 92L906 93L905 92M937 92L938 93L937 92z"/>
<path style="fill:#62afde; stroke:none;" d="M313 93L314 94L313 93M327 93L328 94L327 93M364 93L365 94L364 93z"/>
<path style="fill:#9bc3e3; stroke:none;" d="M391 93L392 94L391 93M405 93L406 94L405 93z"/>
<path style="fill:#099cdf; stroke:none;" d="M455 93L455 96L456 96L455 93z"/>
<path style="fill:#9bc3e3; stroke:none;" d="M488 93L489 94L488 93M504 93L505 94L504 93z"/>
<path style="fill:#099cdf; stroke:none;" d="M520 93L521 94L520 93z"/>
<path style="fill:#9bc3e3; stroke:none;" d="M582 93L583 94L582 93z"/>
<path style="fill:#62afde; stroke:none;" d="M600 93L601 94L600 93M853 93L854 94L853 93M872 93L873 94L872 93M903 93L904 94L903 93z"/>
<path style="fill:#9bc3e3; stroke:none;" d="M299 94L300 95L299 94z"/>
<path style="fill:#62afde; stroke:none;" d="M340 94L341 95L340 94M378 94L379 95L378 94M392 94L393 95L392 94z"/>
<path style="fill:#9bc3e3; stroke:none;" d="M489 94L490 95L489 94M505 94L506 95L505 94M520 94L521 95L520 94z"/>
<path style="fill:#62afde; stroke:none;" d="M568 94L569 95L568 94z"/>
<path style="fill:#2062ae; stroke:none;" d="M569 94L570 95L569 94z"/>
<path style="fill:#9bc3e3; stroke:none;" d="M601 94L602 95L601 94z"/>
<path style="fill:#62afde; stroke:none;" d="M602 94L603 95L602 94z"/>
<path style="fill:#9bc3e3; stroke:none;" d="M839 94L840 95L839 94z"/>
<path style="fill:#62afde; stroke:none;" d="M854 94L855 95L854 94z"/>
<path style="fill:#9bc3e3; stroke:none;" d="M873 94L874 95L873 94z"/>
<path style="fill:#62afde; stroke:none;" d="M874 94L875 95L874 94M901 94L902 95L901 94z"/>
<path style="fill:#9bc3e3; stroke:none;" d="M936 94L937 95L936 94z"/>
<path style="fill:#62afde; stroke:none;" d="M312 95L313 96L312 95M326 95L327 96L326 95z"/>
<path style="fill:#9bc3e3; stroke:none;" d="M365 95L366 96L365 95M379 95L380 96L379 95M392 95L393 96L392 95M406 95L407 96L406 95z"/>
<path style="fill:#62afde; stroke:none;" d="M490 95L491 96L490 95z"/>
<path style="fill:#9bc3e3; stroke:none;" d="M521 95L522 96L521 95z"/>
<path style="fill:#2062ae; stroke:none;" d="M570 95L571 96L570 95z"/>
<path style="fill:#62afde; stroke:none;" d="M583 95L584 96L583 95z"/>
<path style="fill:#9bc3e3; stroke:none;" d="M604 95L605 96L604 95z"/>
<path style="fill:#62afde; stroke:none;" d="M605 95L606 96L605 95z"/>
<path style="fill:#9bc3e3; stroke:none;" d="M722 95L723 96L722 95z"/>
<path style="fill:#62afde; stroke:none;" d="M840 95L841 96L840 95M855 95L856 96L855 95z"/>
<path style="fill:#9bc3e3; stroke:none;" d="M876 95L877 96L876 95z"/>
<path style="fill:#62afde; stroke:none;" d="M898 95L899 96L898 95z"/>
<path style="fill:#9bc3e3; stroke:none;" d="M899 95L900 96L899 95z"/>
<path style="fill:#62afde; stroke:none;" d="M920 95L921 96L920 95M935 95L936 96L935 95M298 96L299 97L298 96z"/>
<path style="fill:#9bc3e3; stroke:none;" d="M325 96L326 97L325 96M339 96L340 97L339 96z"/>
<path style="fill:#62afde; stroke:none;" d="M393 96L394 97L393 96M491 96L492 97L491 96z"/>
<path style="fill:#099cdf; stroke:none;" d="M506 96L507 97L506 96z"/>
<path style="fill:#9bc3e3; stroke:none;" d="M522 96L523 97L522 96M569 96L570 97L569 96z"/>
<path style="fill:#62afde; stroke:none;" d="M584 96L585 97L584 96z"/>
<path style="fill:#9bc3e3; stroke:none;" d="M607 96L608 97L607 96z"/>
<path style="fill:#62afde; stroke:none;" d="M608.667 96.3333L609.333 96.6667L608.667 96.3333M722 96L722 101L723 101L722 96M856 96L857 97L856 96z"/>
<path style="fill:#9bc3e3; stroke:none;" d="M879 96L880 97L879 96z"/>
<path style="fill:#62afde; stroke:none;" d="M880.667 96.3333L881.333 96.6667L880.667 96.3333M894 96L895 97L894 96z"/>
<path style="fill:#9bc3e3; stroke:none;" d="M895.667 96.3333L896.333 96.6667L895.667 96.3333z"/>
<path style="fill:#62afde; stroke:none;" d="M919 96L920 97L919 96M934 96L935 97L934 96z"/>
<path style="fill:#9bc3e3; stroke:none;" d="M262 97L262 108L158 108L158 109L240 109C249.238 109 268.446 112.362 262 97M311 97L312 98L311 97M366 97L367 98L366 97M380 97L381 98L380 97z"/>
<path style="fill:#62afde; stroke:none;" d="M407 97L408 98L407 97z"/>
<path style="fill:#099cdf; stroke:none;" d="M455 97L455 100L456 100L455 97M492 97L493 98L492 97z"/>
<path style="fill:#62afde; stroke:none;" d="M507 97L508 98L507 97M523 97L524 98L523 97M570 97L571 98L570 97z"/>
<path style="fill:#2062ae; stroke:none;" d="M571 97L572 98L571 97z"/>
<path style="fill:#62afde; stroke:none;" d="M585 97L586 98L585 97z"/>
<path style="fill:#9bc3e3; stroke:none;" d="M841 97L842 98L841 97z"/>
<path style="fill:#62afde; stroke:none;" d="M857 97L858 98L857 97z"/>
<path style="fill:#9bc3e3; stroke:none;" d="M884 97L884 98L891 98L884 97z"/>
<path style="fill:#62afde; stroke:none;" d="M297 98L298 99L297 98z"/>
<path style="fill:#9bc3e3; stroke:none;" d="M324 98L325 99L324 98M338 98L339 99L338 98z"/>
<path style="fill:#62afde; stroke:none;" d="M367 98L368 99L367 98z"/>
<path style="fill:#9bc3e3; stroke:none;" d="M394 98L395 99L394 98z"/>
<path style="fill:#62afde; stroke:none;" d="M508 98L509 99L508 98M842 98L843 99L842 98z"/>
<path style="fill:#9bc3e3; stroke:none;" d="M916 98L917 99L916 98M933 98L934 99L933 98M296 99L297 100L296 99M310 99L311 100L310 99z"/>
<path style="fill:#62afde; stroke:none;" d="M337 99L338 100L337 99M381 99L382 100L381 99M408 99L409 100L408 99z"/>
<path style="fill:#9bc3e3; stroke:none;" d="M493 99L494 100L493 99z"/>
<path style="fill:#62afde; stroke:none;" d="M509 99L510 100L509 99z"/>
<path style="fill:#9bc3e3; stroke:none;" d="M588 99L589 100L588 99z"/>
<path style="fill:#62afde; stroke:none;" d="M843 99L844 100L843 99z"/>
<path style="fill:#9bc3e3; stroke:none;" d="M860 99L861 100L860 99M915 99L916 100L915 99M932 99L933 100L932 99z"/>
<path style="fill:#62afde; stroke:none;" d="M309 100L310 101L309 100M323 100L324 101L323 100M368 100L369 101L368 100z"/>
<path style="fill:#9bc3e3; stroke:none;" d="M382 100L383 101L382 100M395 100L396 101L395 100M409 100L410 101L409 100M494 100L495 101L494 100M510 100L511 101L510 100M572 100L573 101L572 100M589 100L590 101L589 100z"/>
<path style="fill:#62afde; stroke:none;" d="M861 100L862 101L861 100M914 100L915 101L914 100M931 100L932 101L931 100z"/>
<path style="fill:#9bc3e3; stroke:none;" d="M295 101L296 102L295 101M322 101L323 102L322 101z"/>
<path style="fill:#62afde; stroke:none;" d="M336 101L337 102L336 101M382 101L383 102L382 101M396 101L397 102L396 101z"/>
<path style="fill:#099cdf; stroke:none;" d="M455 101L455 108L456 108L455 101z"/>
<path style="fill:#9bc3e3; stroke:none;" d="M495 101L496 102L495 101M511 101L512 102L511 101z"/>
<path style="fill:#62afde; stroke:none;" d="M573 101L574 102L573 101M590 101L591 102L590 101z"/>
<path style="fill:#9bc3e3; stroke:none;" d="M722 101L723 102L722 101M863 101L864 102L863 101M912 101L913 102L912 101z"/>
<path style="fill:#62afde; stroke:none;" d="M930 101L931 102L930 101M308 102L309 103L308 102z"/>
<path style="fill:#9bc3e3; stroke:none;" d="M369 102L370 103L369 102M383 102L384 103L383 102M410 102L411 103L410 102z"/>
<path style="fill:#62afde; stroke:none;" d="M496 102L497 103L496 102z"/>
<path style="fill:#9bc3e3; stroke:none;" d="M512 102L513 103L512 102z"/>
<path style="fill:#62afde; stroke:none;" d="M574 102L576 104L574 102z"/>
<path style="fill:#2062ae; stroke:none;" d="M575 102L576 103L575 102z"/>
<path style="fill:#9bc3e3; stroke:none;" d="M592 102L593 103L592 102z"/>
<path style="fill:#62afde; stroke:none;" d="M722 102L722 107L723 107L722 102z"/>
<path style="fill:#9bc3e3; stroke:none;" d="M845 102L846 103L845 102M864 102L865 103L864 102z"/>
<path style="fill:#62afde; stroke:none;" d="M911 102L912 103L911 102M929 102L930 103L929 102M294 103L295 104L294 103z"/>
<path style="fill:#9bc3e3; stroke:none;" d="M321 103L322 104L321 103M335 103L336 104L335 103M397 103L398 104L397 103z"/>
<path style="fill:#62afde; stroke:none;" d="M497 103L498 104L497 103z"/>
<path style="fill:#099cdf; stroke:none;" d="M512 103L513 104L512 103z"/>
<path style="fill:#9bc3e3; stroke:none;" d="M594 103L595 104L594 103M846 103L847 104L846 103M866 103L867 104L866 103M909 103L910 104L909 103z"/>
<path style="fill:#62afde; stroke:none;" d="M928 103L929 104L928 103z"/>
<path style="fill:#9bc3e3; stroke:none;" d="M307 104L308 105L307 104M370 104L371 105L370 104M384 104L385 105L384 104z"/>
<path style="fill:#62afde; stroke:none;" d="M411 104L412 105L411 104M498 104L499 105L498 104z"/>
<path style="fill:#099cdf; stroke:none;" d="M513 104L514 105L513 104z"/>
<path style="fill:#62afde; stroke:none;" d="M576 104L577 105L576 104M595 104L596 105L595 104z"/>
<path style="fill:#9bc3e3; stroke:none;" d="M847 104L848 105L847 104M868 104L869 105L868 104z"/>
<path style="fill:#62afde; stroke:none;" d="M907 104L908 105L907 104M927 104L928 105L927 104M320 105L321 106L320 105z"/>
<path style="fill:#9bc3e3; stroke:none;" d="M334 105L335 106L334 105z"/>
<path style="fill:#62afde; stroke:none;" d="M371 105L372 106L371 105z"/>
<path style="fill:#9bc3e3; stroke:none;" d="M398 105L399 106L398 105M412 105L413 106L412 105z"/>
<path style="fill:#099cdf; stroke:none;" d="M499 105L500 106L499 105z"/>
<path style="fill:#62afde; stroke:none;" d="M514 105L515 106L514 105M597 105L598 106L597 105z"/>
<path style="fill:#9bc3e3; stroke:none;" d="M598 105L599 106L598 105M848 105L849 106L848 105z"/>
<path style="fill:#62afde; stroke:none;" d="M870 105L871 106L870 105z"/>
<path style="fill:#9bc3e3; stroke:none;" d="M871 105L872 106L871 105M904 105L905 106L904 105z"/>
<path style="fill:#62afde; stroke:none;" d="M905 105L906 106L905 105M926 105L927 106L926 105z"/>
<path style="fill:#9bc3e3; stroke:none;" d="M292 106L293 107L292 106M306 106L307 107L306 106z"/>
<path style="fill:#62afde; stroke:none;" d="M333 106L334 107L333 106M385 106L386 107L385 106M399 106L400 107L399 106M412 106L413 107L412 106M515 106L516 107L515 106z"/>
<path style="fill:#9bc3e3; stroke:none;" d="M600 106L601 107L600 106z"/>
<path style="fill:#62afde; stroke:none;" d="M873 106L874 107L873 106z"/>
<path style="fill:#9bc3e3; stroke:none;" d="M874 106L875 107L874 106M901 106L902 107L901 106z"/>
<path style="fill:#62afde; stroke:none;" d="M902 106L903 107L902 106M925 106L926 107L925 106M305 107L306 108L305 107M319 107L320 108L319 107z"/>
<path style="fill:#9bc3e3; stroke:none;" d="M372 107L373 108L372 107M386 107L387 108L386 107M413 107L414 108L413 107M500 107L501 108L500 107M516 107L517 108L516 107z"/>
<path style="fill:#62afde; stroke:none;" d="M579 107L580 108L579 107M602 107L603 108L602 107z"/>
<path style="fill:#9bc3e3; stroke:none;" d="M603.667 107.333L604.333 107.667L603.667 107.333M722 107L711 108L711 109L723 108L722 107z"/>
<path style="fill:#62afde; stroke:none;" d="M851 107L852 108L851 107M876 107L877 108L876 107z"/>
<path style="fill:#9bc3e3; stroke:none;" d="M877 107L878 108L877 107M897.667 107.333L898.333 107.667L897.667 107.333z"/>
<path style="fill:#62afde; stroke:none;" d="M899 107L900 108L899 107z"/>
<path style="fill:#9bc3e3; stroke:none;" d="M924 107L925 108L924 107M38 108L38 109L49 109L38 108z"/>
<path style="fill:#62afde; stroke:none;" d="M262 108L263 109L262 108M291 108L292 109L291 108z"/>
<path style="fill:#9bc3e3; stroke:none;" d="M305 108L305 109L319 109L305 108M332 108L333 109L332 108M387 108L387 109L400 109L387 108z"/>
<path style="fill:#62afde; stroke:none;" d="M400 108L401 109L400 108z"/>
<path style="fill:#9bc3e3; stroke:none;" d="M501 108L502 109L501 108M517 108L517 109L536 109L517 108z"/>
<path style="fill:#62afde; stroke:none;" d="M580 108L581 109L580 108M606 108L606 109L609 109L606 108M665 108L666 109L665 108M722 108L723 109L722 108z"/>
<path style="fill:#9bc3e3; stroke:none;" d="M852 108L853 109L852 108z"/>
<path style="fill:#62afde; stroke:none;" d="M880.667 108.333L881.333 108.667L880.667 108.333z"/>
<path style="fill:#9bc3e3; stroke:none;" d="M882 108L882 109L894 109L882 108z"/>
<path style="fill:#62afde; stroke:none;" d="M894 108L895 109L894 108z"/>
<path style="fill:#9bc3e3; stroke:none;" d="M923 108L924 109L923 108z"/>
<path style="fill:#62afde; stroke:none;" d="M157 109C157 111.927 156.089 116.949 158.028 119.397C161.552 123.846 179.62 121 185 121L273 121L273 120L158 120L157 109z"/>
<path style="fill:#9bc3e3; stroke:none;" d="M373 109L374 110L373 109z"/>
<path style="fill:#62afde; stroke:none;" d="M414 109L415 110L414 109M502 109L503 110L502 109z"/>
<path style="fill:#9bc3e3; stroke:none;" d="M581 109L582 110L581 109M853 109L854 110L853 109z"/>
<path style="fill:#62afde; stroke:none;" d="M921 109L922 110L921 109M290 110L291 111L290 110z"/>
<path style="fill:#9bc3e3; stroke:none;" d="M331 110L332 111L331 110z"/>
<path style="fill:#62afde; stroke:none;" d="M374 110L375 111L374 110M503 110L504 111L503 110z"/>
<path style="fill:#9bc3e3; stroke:none;" d="M582 110L583 111L582 110z"/>
<path style="fill:#62afde; stroke:none;" d="M855 110L856 111L855 110z"/>
<path style="fill:#9bc3e3; stroke:none;" d="M920 110L921 111L920 110M289 111L290 112L289 111z"/>
<path style="fill:#62afde; stroke:none;" d="M330 111L331 112L330 111z"/>
<path style="fill:#9bc3e3; stroke:none;" d="M374 111L375 112L374 111z"/>
<path style="fill:#62afde; stroke:none;" d="M415 111L416 112L415 111M504 111L505 112L504 111M584 111L585 112L584 111z"/>
<path style="fill:#9bc3e3; stroke:none;" d="M856 111L857 112L856 111z"/>
<path style="fill:#62afde; stroke:none;" d="M918 111L919 112L918 111M375 112L376 113L375 112z"/>
<path style="fill:#9bc3e3; stroke:none;" d="M416 112L417 113L416 112z"/>
<path style="fill:#099cdf; stroke:none;" d="M505 112L506 113L505 112z"/>
<path style="fill:#9bc3e3; stroke:none;" d="M585 112L586 113L585 112z"/>
<path style="fill:#62afde; stroke:none;" d="M858 112L859 113L858 112z"/>
<path style="fill:#9bc3e3; stroke:none;" d="M917 112L918 113L917 112M288 113L289 114L288 113z"/>
<path style="fill:#62afde; stroke:none;" d="M329 113L330 114L329 113z"/>
<path style="fill:#9bc3e3; stroke:none;" d="M587 113L588 114L587 113M859 113L860 114L859 113M915 113L916 114L915 113M376 114L377 115L376 114M417 114L418 115L417 114M506 114L507 115L506 114z"/>
<path style="fill:#62afde; stroke:none;" d="M589 114L590 115L589 114z"/>
<path style="fill:#9bc3e3; stroke:none;" d="M861 114L862 115L861 114z"/>
<path style="fill:#62afde; stroke:none;" d="M913 114L914 115L913 114M287 115L288 116L287 115z"/>
<path style="fill:#9bc3e3; stroke:none;" d="M328 115L329 116L328 115M507 115L508 116L507 115z"/>
<path style="fill:#62afde; stroke:none;" d="M591 115L592 116L591 115z"/>
<path style="fill:#9bc3e3; stroke:none;" d="M863 115L864 116L863 115z"/>
<path style="fill:#62afde; stroke:none;" d="M911 115L912 116L911 115z"/>
<path style="fill:#9bc3e3; stroke:none;" d="M286 116L287 117L286 116M377 116L378 117L377 116z"/>
<path style="fill:#62afde; stroke:none;" d="M418 116L419 117L418 116z"/>
<path style="fill:#9bc3e3; stroke:none;" d="M508 116L509 117L508 116z"/>
<path style="fill:#62afde; stroke:none;" d="M593 116L594 117L593 116z"/>
<path style="fill:#9bc3e3; stroke:none;" d="M865 116L866 117L865 116z"/>
<path style="fill:#62afde; stroke:none;" d="M866 116L867 117L866 116z"/>
<path style="fill:#9bc3e3; stroke:none;" d="M909 116L910 117L909 116M327 117L328 118L327 117z"/>
<path style="fill:#62afde; stroke:none;" d="M378 117L379 118L378 117z"/>
<path style="fill:#9bc3e3; stroke:none;" d="M419 117L420 118L419 117z"/>
<path style="fill:#62afde; stroke:none;" d="M509 117L510 118L509 117z"/>
<path style="fill:#9bc3e3; stroke:none;" d="M595 117L596 118L595 117z"/>
<path style="fill:#62afde; stroke:none;" d="M596 117L597 118L596 117z"/>
<path style="fill:#9bc3e3; stroke:none;" d="M868 117L869 118L868 117z"/>
<path style="fill:#62afde; stroke:none;" d="M869 117L870 118L869 117z"/>
<path style="fill:#9bc3e3; stroke:none;" d="M906 117L907 118L906 117M285 118L286 119L285 118z"/>
<path style="fill:#62afde; stroke:none;" d="M326 118L327 119L326 118M419 118L420 119L419 118M510 118L511 119L510 118z"/>
<path style="fill:#9bc3e3; stroke:none;" d="M598 118L599 119L598 118z"/>
<path style="fill:#62afde; stroke:none;" d="M599 118L600 119L599 118z"/>
<path style="fill:#9bc3e3; stroke:none;" d="M871 118L872 119L871 118z"/>
<path style="fill:#62afde; stroke:none;" d="M872.667 118.333L873.333 118.667L872.667 118.333M902 118L903 119L902 118z"/>
<path style="fill:#9bc3e3; stroke:none;" d="M903 118L904 119L903 118M379 119L380 120L379 119M420 119L380 120L380 121L411 121L420 119z"/>
<path style="fill:#099cdf; stroke:none;" d="M511 119L512 120L511 119z"/>
<path style="fill:#9bc3e3; stroke:none;" d="M602 119L603 120L602 119z"/>
<path style="fill:#62afde; stroke:none;" d="M603.667 119.333L604.333 119.667L603.667 119.333z"/>
<path style="fill:#9bc3e3; stroke:none;" d="M875.667 119.333L876.333 119.667L875.667 119.333z"/>
<path style="fill:#62afde; stroke:none;" d="M877 119L878 120L877 119M897.667 119.333L898.333 119.667L897.667 119.333z"/>
<path style="fill:#9bc3e3; stroke:none;" d="M899 119L900 120L899 119z"/>
<path style="fill:#62afde; stroke:none;" d="M26 120L26 121L61 121L26 120z"/>
<path style="fill:#9bc3e3; stroke:none;" d="M157 120L158 121L157 120M273 120L274 121L273 120M284.667 120.333L285.333 120.667L284.667 120.333z"/>
<path style="fill:#62afde; stroke:none;" d="M286 120L286 121L302 121L286 120z"/>
<path style="fill:#9bc3e3; stroke:none;" d="M302 120L302 121L326 121L302 120M431 120L431 121L467 121C457.44 116.989 441.387 120 431 120M512 120L512 121L548 121C538.44 116.989 522.387 120 512 120M607 120L607 121L677 121L655 120L607 120M699 120L699 121L734 121L699 120M882 120L882 121L893 121L882 120z"/>
</svg>
